<?xml version="1.0" encoding="iso-8859-1"?>
<!-- Generator: Adobe Illustrator 19.0.0, SVG Export Plug-In . SVG Version: 6.00 Build 0)  -->
<svg version="1.1" id="Layer_1" xmlns="http://www.w3.org/2000/svg" xmlns:xlink="http://www.w3.org/1999/xlink" x="0px" y="0px"
	 viewBox="0 0 511.999 511.999" style="enable-background:new 0 0 511.999 511.999;" xml:space="preserve">
<g>
	<g>
		<path d="M267.39,150.435c-50.153,0-90.954,40.802-90.954,90.954c0,50.153,40.802,90.954,90.954,90.954
			s90.954-40.802,90.954-90.954S317.542,150.435,267.39,150.435z M267.39,299.196c-31.875,0-57.807-25.932-57.807-57.807
			s25.932-57.807,57.807-57.807s57.807,25.932,57.807,57.807C325.197,273.263,299.265,299.196,267.39,299.196z"/>
	</g>
</g>
<g>
	<g>
		<path d="M504.456,265.564V121.715c0-35.032-44.522-49.58-65.432-22.002c-18.908,24.936-30.638,54.97-33.82,86.026
			c-22.073-54.465-75.526-92.984-137.813-92.984c-57.27,0-107.073,32.564-131.882,80.143l-4.072-66.584
			C130.179,85.733,113.04,69.61,92.42,69.61c-4.096,0-8.143,0.654-11.99,1.898c-3.882-1.25-7.975-1.898-12.162-1.898
			s-8.279,0.649-12.162,1.898c-3.847-1.244-7.895-1.898-11.99-1.898c-20.621,0-37.759,16.123-39.017,36.705
			c-5.484,89.676-5.092,82.837-5.092,84.284c0,20.697,9.365,40.347,25.76,53.411c-5.418,53.199-8.998,131.179-8.998,141.059
			c0,31.748,22.731,57.32,51.501,57.32c28.875,0,51.501-25.687,51.501-57.32c0-9.881-3.58-87.863-8.998-141.059
			c2.899-2.31,5.594-4.866,8.081-7.611c-0.055,1.657-0.093,3.319-0.093,4.99c0,81.956,66.676,148.632,148.632,148.632
			c68.775,0,126.78-46.956,143.662-110.489c1.968,3.137,4.316,6.013,6.983,8.556c-3.433,43.637-5.6,92.116-5.6,99.246
			c0,30.414,21.908,55.055,49.781,55.055c27.914,0,49.781-24.682,49.781-55.055C511.998,378.937,508.995,313.204,504.456,265.564z
			 M86.435,220.65c-6.607,4.002-10.297,11.494-9.444,19.172c5.734,51.682,9.629,136.055,9.629,145.247
			c0,13.351-8.217,24.173-18.354,24.173c-10.136,0-18.353-10.823-18.353-24.173c0-9.192,3.895-93.565,9.629-145.247
			c0.852-7.681-2.833-15.168-9.445-19.172c-10.157-6.153-16.946-17.308-16.946-30.051l5.031-82.261
			c0.192-3.136,2.791-5.581,5.932-5.581c3.398,0,6.105,2.846,5.937,6.238l-3.272,65.974c0,3.708,3.006,6.714,6.714,6.714
			c3.708,0,6.714-3.006,6.714-6.714l1.635-65.946c0.086-3.485,2.937-6.265,6.423-6.265s6.337,2.78,6.423,6.265l1.635,65.946
			c0,3.708,3.006,6.714,6.714,6.714c3.708,0,6.714-3.006,6.714-6.714l-3.272-65.974c-0.168-3.394,2.541-6.238,5.937-6.238
			c3.141,0,5.741,2.445,5.932,5.581l5.031,82.261C103.382,203.342,96.593,214.498,86.435,220.65z M267.39,356.874
			c-63.679,0-115.485-51.807-115.485-115.485s51.807-115.485,115.485-115.485c63.679,0,115.485,51.807,115.485,115.485
			S331.069,356.874,267.39,356.874z M462.217,409.243c-9.186,0-16.634-9.808-16.634-21.908c0-7.68,3-73.273,7.541-120.17h-4.606
			c-6.102,0-11.049-4.947-11.049-11.049v-53.205c0-30.032,9.821-59.239,27.967-83.169c1.885-2.486,5.873-1.16,5.873,1.974v145.437
			c4.541,46.899,7.542,112.502,7.542,120.182C478.851,399.434,471.404,409.243,462.217,409.243z"/>
	</g>
</g>
<g>
</g>
<g>
</g>
<g>
</g>
<g>
</g>
<g>
</g>
<g>
</g>
<g>
</g>
<g>
</g>
<g>
</g>
<g>
</g>
<g>
</g>
<g>
</g>
<g>
</g>
<g>
</g>
<g>
</g>
</svg>
