<?xml version="1.0" encoding="iso-8859-1"?>
<!-- Generator: Adobe Illustrator 16.0.0, SVG Export Plug-In . SVG Version: 6.00 Build 0)  -->
<!DOCTYPE svg PUBLIC "-//W3C//DTD SVG 1.1//EN" "http://www.w3.org/Graphics/SVG/1.1/DTD/svg11.dtd">
<svg xmlns="http://www.w3.org/2000/svg" xmlns:xlink="http://www.w3.org/1999/xlink" version="1.1" id="Capa_1" x="0px" y="0px" width="512px" height="512px" viewBox="0 0 170.379 170.38" style="enable-background:new 0 0 170.379 170.38;" xml:space="preserve">
<g>
	<g>
		<path d="M101.606,24.167C101.606,15.251,94.354,8,85.44,8c-8.915,0-16.168,7.252-16.168,16.167s7.253,16.167,16.168,16.167    C94.354,40.333,101.606,33.082,101.606,24.167z M76.273,24.167c0-5.055,4.112-9.167,9.168-9.167c5.054,0,9.166,4.112,9.166,9.167    s-4.11,9.167-9.166,9.167C80.385,33.333,76.273,29.222,76.273,24.167z" fill="#D80027"/>
		<path d="M36.94,155.334c8.914,0,16.166-7.254,16.166-16.168S45.854,123,36.94,123c-8.915,0-16.168,7.252-16.168,16.166    C20.773,148.08,28.025,155.334,36.94,155.334z M36.94,130c5.054,0,9.166,4.11,9.166,9.166c0,5.057-4.112,9.168-9.166,9.168    c-5.056,0-9.168-4.111-9.168-9.168C27.773,134.11,31.885,130,36.94,130z" fill="#D80027"/>
		<path d="M140.266,3.709c0.093-1.93-1.355-3.587-3.283-3.703c-1.934-0.115-3.57,1.355-3.705,3.284    C130.69,40.5,77.539,49.452,77.539,49.452c-1.863,0.497-2.974,2.407-2.483,4.271l13.666,52c0.413,1.57,2.344,2.943,4.274,2.494    c1.883-0.438,2.985-2.404,2.493-4.273L82.711,55.317C82.712,55.315,138.357,43.667,140.266,3.709z" fill="#D80027"/>
		<path d="M37.223,92.879c1.342,2.912,4.146,2.029,4.596,1.838c19.597-8.399,30.606-29.389,31.065-30.278    c0.886-1.717,0.213-3.825-1.503-4.713c-1.712-0.885-3.826-0.217-4.716,1.499C66.563,61.42,56.311,80.89,39.061,88.283    C37.284,89.045,36.414,91.123,37.223,92.879z" fill="#D80027"/>
		<path d="M47.709,170.043c2.106,0.875,4.032-0.494,4.606-1.812c0.181-0.414,18.396-41.588,44.863-47.311    c7.941-1.717,13.664-5.562,17.008-11.433c5.873-10.301,2.02-23.047,1.604-24.34l-8.646-30.6c-0.523-1.86-2.461-2.939-4.32-2.417    c-1.857,0.526-2.939,2.46-2.416,4.32l8.666,30.667c0.018,0.053,0.031,0.104,0.051,0.153c0.033,0.106,3.518,10.802-1.016,18.75    c-2.316,4.067-6.492,6.776-12.406,8.058c-29.936,6.473-49.004,49.526-49.802,51.356C45.126,167.207,45.923,169.299,47.709,170.043    z" fill="#D80027"/>
		<path d="M149.479,167.771c0.518-1.862-0.574-3.791-2.436-4.31c-16.604-4.61-39.859-36.842-40.092-37.168    c-1.129-1.569-3.312-1.932-4.887-0.807c-1.568,1.127-1.934,3.312-0.807,4.885c1.01,1.408,24.961,34.48,43.908,39.834    C147.69,170.918,149.049,169.317,149.479,167.771z" fill="#D80027"/>
	</g>
</g>
<g>
</g>
<g>
</g>
<g>
</g>
<g>
</g>
<g>
</g>
<g>
</g>
<g>
</g>
<g>
</g>
<g>
</g>
<g>
</g>
<g>
</g>
<g>
</g>
<g>
</g>
<g>
</g>
<g>
</g>
</svg>
