<?xml version='1.0' encoding='iso-8859-1'?>
<svg version="1.1" xmlns="http://www.w3.org/2000/svg" viewBox="0 0 463.004 463.004" xmlns:xlink="http://www.w3.org/1999/xlink" enable-background="new 0 0 463.004 463.004">
  <g>
    <path d="m163.805,115.387c-3.397-2.37-8.073-1.537-10.442,1.86s-1.537,8.072 1.86,10.442c5.57,3.885 10.365,9.011 13.866,14.823 1.408,2.337 3.888,3.631 6.432,3.631 1.317,0 2.652-0.348 3.863-1.077 3.548-2.137 4.691-6.746 2.554-10.294-4.58-7.601-10.85-14.305-18.133-19.385z"/>
    <path d="m371.805,115.387c-3.397-2.37-8.072-1.537-10.442,1.86-2.37,3.397-1.537,8.072 1.86,10.442 5.57,3.885 10.365,9.011 13.866,14.823 1.408,2.337 3.888,3.631 6.432,3.631 1.317,0 2.652-0.348 3.863-1.077 3.548-2.137 4.691-6.746 2.554-10.294-4.58-7.601-10.85-14.305-18.133-19.385z"/>
    <path d="m461.494,312.913l-40-192.001c-8.039-38.576-45.983-63.438-84.583-55.413-15.035,3.133-28.7,11.07-38.856,22.498h-133.105c-10.157-11.428-23.822-19.365-38.861-22.499-38.6-8.028-76.541,16.838-84.579,55.415l-40,192c-8.039,38.596 16.819,76.539 55.42,84.584 4.848,1.006 9.775,1.516 14.645,1.516 33.646,0 63.057-23.942 69.93-56.919l14.684-69.904c6.745,4.302 14.743,6.808 23.32,6.808 13.611,0 25.777-6.288 33.759-16.106 0.397,0.065 0.802,0.107 1.217,0.107h34.024c0.423,0 0.834-0.043 1.238-0.111 7.982,9.82 20.149,16.11 33.762,16.11 8.572,0 16.565-2.502 23.308-6.8l14.68,69.885c6.875,32.988 36.286,56.931 69.932,56.931 4.869,0 9.796-0.51 14.651-1.518 38.594-8.044 63.453-45.987 55.414-84.583zm-281.985-48.916c-15.715,0-28.5-12.785-28.5-28.5s12.785-28.5 28.5-28.5 28.5,12.785 28.5,28.5-12.785,28.5-28.5,28.5zm104,0c-15.715,0-28.5-12.785-28.5-28.5s12.785-28.5 28.5-28.5 28.5,12.785 28.5,28.5-12.785,28.5-28.5,28.5zm119.517,118.812c-3.848,0.799-7.75,1.203-11.598,1.203-26.58,0-49.814-18.922-55.25-45.003l-16.631-79.177c4.708-6.95 7.461-15.327 7.461-24.336 0-1.731-0.113-3.436-0.311-5.115 2.905,0.403 5.845,0.615 8.811,0.615 35.014,0 63.5-28.486 63.5-63.5 0-4.143-3.358-7.5-7.5-7.5s-7.5,3.357-7.5,7.5c0,26.743-21.757,48.5-48.5,48.5-4.887,0-9.682-0.725-14.292-2.146-5.745-9.97-15.32-17.464-26.709-20.443-4.909-7.747-7.499-16.67-7.499-25.912 0-26.743 21.757-48.5 48.5-48.5 4.142,0 7.5-3.357 7.5-7.5s-3.358-7.5-7.5-7.5c-35.014,0-63.5,28.486-63.5,63.5 0,8.674 1.747,17.137 5.104,24.974-20.964,3.103-37.104,21.213-37.104,43.026 0,4.345 0.648,8.539 1.839,12.501h-20.677c1.191-3.962 1.839-8.156 1.839-12.501 0-21.814-16.141-39.924-37.105-43.026 3.355-7.827 5.105-16.276 5.105-24.974 0-4.143-3.358-7.5-7.5-7.5s-7.5,3.357-7.5,7.5c0,9.269-2.592,18.168-7.504,25.913-11.386,2.979-20.958,10.472-26.703,20.439-4.61,1.42-9.41,2.147-14.293,2.147-26.743,0-48.5-21.757-48.5-48.5s21.757-48.5 48.5-48.5c4.142,0 7.5-3.357 7.5-7.5s-3.358-7.5-7.5-7.5c-35.014,0-63.5,28.486-63.5,63.5s28.486,63.5 63.5,63.5c2.964,0 5.904-0.216 8.811-0.62-0.198,1.681-0.311,3.387-0.311,5.12 0,9.002 2.749,17.374 7.451,24.321l-16.637,79.203c-5.433,26.069-28.668,44.991-55.248,44.991-3.848,0-7.75-0.404-11.591-1.201-30.498-6.356-50.142-36.34-43.79-66.84l40-191.999c6.353-30.484 36.342-50.124 66.838-43.79 12.833,2.675 24.402,9.777 32.577,19.999 1.423,1.779 3.579,2.815 5.857,2.815h140.069c2.279,0 4.434-1.036 5.857-2.815 8.174-10.222 19.744-17.324 32.572-19.998 30.506-6.338 60.49,13.305 66.843,43.788l40,192c6.355,30.504-13.289,60.487-43.781,66.841z"/>
    <path d="m127.509,127.997c-4.142,0-7.5,3.357-7.5,7.5v16c0,4.143 3.358,7.5 7.5,7.5s7.5-3.357 7.5-7.5v-16c-2.84217e-14-4.143-3.358-7.5-7.5-7.5z"/>
    <path d="m127.509,175.997c-4.142,0-7.5,3.357-7.5,7.5v16c0,4.143 3.358,7.5 7.5,7.5s7.5-3.357 7.5-7.5v-16c-2.84217e-14-4.143-3.358-7.5-7.5-7.5z"/>
    <path d="m111.509,159.997h-16c-4.142,0-7.5,3.357-7.5,7.5s3.358,7.5 7.5,7.5h16c4.142,0 7.5-3.357 7.5-7.5s-3.358-7.5-7.5-7.5z"/>
    <path d="m159.509,159.997h-16c-4.142,0-7.5,3.357-7.5,7.5s3.358,7.5 7.5,7.5h16c4.142,0 7.5-3.357 7.5-7.5s-3.358-7.5-7.5-7.5z"/>
    <path d="m335.509,127.997c-4.142,0-7.5,3.357-7.5,7.5v16c0,4.143 3.358,7.5 7.5,7.5s7.5-3.357 7.5-7.5v-16c0-4.143-3.358-7.5-7.5-7.5z"/>
    <path d="m335.509,175.997c-4.142,0-7.5,3.357-7.5,7.5v16c0,4.143 3.358,7.5 7.5,7.5s7.5-3.357 7.5-7.5v-16c0-4.143-3.358-7.5-7.5-7.5z"/>
    <path d="m319.509,159.997h-16c-4.142,0-7.5,3.357-7.5,7.5s3.358,7.5 7.5,7.5h16c4.142,0 7.5-3.357 7.5-7.5s-3.358-7.5-7.5-7.5z"/>
    <path d="m367.509,159.997h-16c-4.142,0-7.5,3.357-7.5,7.5s3.358,7.5 7.5,7.5h16c4.142,0 7.5-3.357 7.5-7.5s-3.358-7.5-7.5-7.5z"/>
    <path d="m179.509,223.997c-6.341,0-11.5,5.159-11.5,11.5s5.159,11.5 11.5,11.5 11.5-5.159 11.5-11.5-5.159-11.5-11.5-11.5z"/>
    <path d="m247.509,159.997h-32c-4.142,0-7.5,3.357-7.5,7.5s3.358,7.5 7.5,7.5h32c4.142,0 7.5-3.357 7.5-7.5s-3.358-7.5-7.5-7.5z"/>
    <path d="m283.509,223.997c-6.341,0-11.5,5.159-11.5,11.5s5.159,11.5 11.5,11.5 11.5-5.159 11.5-11.5-5.159-11.5-11.5-11.5z"/>
  </g>
</svg>
